<svg id="nav" xmlns="http://www.w3.org/2000/svg" width="1500" height="60" viewBox="0 0 1500 60">
  <rect id="Rectangle_2137" data-name="Rectangle 2137" width="1500" height="60" fill="#fff"/>
  <rect id="Rectangle_2138" data-name="Rectangle 2138" width="1500" height="1" transform="translate(0 59)" fill="#ddd"/>
  <g id="logo" transform="translate(0 15)">
    <rect id="Rectangle_2140" data-name="Rectangle 2140" width="200" height="30" transform="translate(30)" fill="none"/>
    <g id="icon" transform="translate(-1250.5 -401)">
      <path id="Path_99" data-name="Path 99" d="M111.682,30H2.4A2.4,2.4,0,0,1,0,27.6V2.4A2.4,2.4,0,0,1,2.4,0H111.682a2.4,2.4,0,0,1,2.4,2.4V27.6a2.4,2.4,0,0,1-2.4,2.4ZM97.328,8.367a.512.512,0,0,0-.512.512v1.3a.512.512,0,0,0,.512.512h2.745V21.064a.512.512,0,0,0,.512.512h1.3a.512.512,0,0,0,.512-.512V10.693h2.745a.512.512,0,0,0,.512-.512v-1.3a.512.512,0,0,0-.512-.512Zm-9.633,9.5a.511.511,0,0,0-.472.314l-.492,1.176a.509.509,0,0,0,.146.592,7.416,7.416,0,0,0,2.046,1.221,6.054,6.054,0,0,0,2.178.4,5.367,5.367,0,0,0,3.354-1.067,3.644,3.644,0,0,0,1.392-2.943c0-2.1-1.657-2.892-4-3.786l-.154-.059-.155-.059-.081-.031h0a5.365,5.365,0,0,1-1.12-.518,1.14,1.14,0,0,1-.559-.976,1.32,1.32,0,0,1,.547-1.021,2.108,2.108,0,0,1,1.3-.42,3.4,3.4,0,0,1,1.821.563.513.513,0,0,0,.272.079.515.515,0,0,0,.477-.327l.447-1.153a.51.51,0,0,0-.214-.624,5.853,5.853,0,0,0-2.812-.863l-.163,0a4.242,4.242,0,0,0-1.573.3,4.109,4.109,0,0,0-1.291.814,3.788,3.788,0,0,0-.871,1.2,3.482,3.482,0,0,0-.319,1.457,2.919,2.919,0,0,0,1.246,2.411,8.831,8.831,0,0,0,3.042,1.363,3.625,3.625,0,0,1,1.152.507,1.374,1.374,0,0,1,.63,1.148,1.456,1.456,0,0,1-.644,1.195,2.939,2.939,0,0,1-1.722.465,3.884,3.884,0,0,1-1.458-.323,8.549,8.549,0,0,1-1.653-.941.513.513,0,0,0-.3-.094Zm-9.12-9.5a6.589,6.589,0,1,0,2.572.519A6.57,6.57,0,0,0,78.576,8.367Zm-15.774,0a.512.512,0,0,0-.512.512V21.064a.512.512,0,0,0,.512.512h1.3a.513.513,0,0,0,.512-.512v-4.79h2.466a3.953,3.953,0,1,0,0-7.906ZM46.422,11.809a.512.512,0,0,0-.512.512v8.744a.512.512,0,0,0,.512.512h1.3a.512.512,0,0,0,.512-.512v-5.1a1.853,1.853,0,0,1,2.514-1.7l.608.233a.51.51,0,0,0,.183.034.515.515,0,0,0,.478-.328l.467-1.216a.511.511,0,0,0-.294-.661l-.668-.256a4.187,4.187,0,0,0-3.075.081l-.184.079-.105-.17a.509.509,0,0,0-.436-.243ZM42.132,20.9h0l.07.288a.51.51,0,0,0,.5.391H44a.512.512,0,0,0,.512-.512V16.506a.551.551,0,0,0-.006-.08l0-.011v-.011a4.889,4.889,0,1,0-4.878,5.171,4.834,4.834,0,0,0,2.241-.543l.263-.136ZM29.16,14.134a1.862,1.862,0,0,1,1.859,1.732v5.186a.524.524,0,0,0,.524.523h1.279a.524.524,0,0,0,.524-.523v-4.97c0-.028,0-.058,0-.087a4.191,4.191,0,0,0-7.056-3.054l-.159.149-.159-.149a4.2,4.2,0,0,0-4.514-.8l-.185.079-.105-.171a.509.509,0,0,0-.437-.244h-1.3a.512.512,0,0,0-.512.512v8.744a.512.512,0,0,0,.512.512h1.3a.513.513,0,0,0,.512-.512v-5.1a1.863,1.863,0,0,1,3.722-.094v5.186a.524.524,0,0,0,.524.523h1.279a.524.524,0,0,0,.524-.523v-4.97c0-.029,0-.059,0-.087s0-.061,0-.09v-.02A1.863,1.863,0,0,1,29.16,14.134ZM9.372,17.868a.511.511,0,0,0-.472.314l-.492,1.176a.509.509,0,0,0,.146.592A7.416,7.416,0,0,0,10.6,21.171a6.054,6.054,0,0,0,2.178.4,5.368,5.368,0,0,0,3.355-1.067,3.644,3.644,0,0,0,1.392-2.943,2.859,2.859,0,0,0-1.24-2.438,12.823,12.823,0,0,0-3.067-1.465l-.081-.031h0a5.37,5.37,0,0,1-1.12-.518,1.139,1.139,0,0,1-.559-.976A1.321,1.321,0,0,1,12,11.116a2.109,2.109,0,0,1,1.3-.42,3.4,3.4,0,0,1,1.821.563.515.515,0,0,0,.272.079.515.515,0,0,0,.477-.327l.447-1.153a.511.511,0,0,0-.214-.624,5.854,5.854,0,0,0-2.812-.863l-.163,0a4.244,4.244,0,0,0-1.573.3,4.109,4.109,0,0,0-1.291.814,3.789,3.789,0,0,0-.871,1.2,3.48,3.48,0,0,0-.319,1.457,2.919,2.919,0,0,0,1.246,2.411,8.829,8.829,0,0,0,3.042,1.363,3.627,3.627,0,0,1,1.152.507,1.374,1.374,0,0,1,.63,1.148A1.456,1.456,0,0,1,14.5,18.76a2.94,2.94,0,0,1-1.722.465A3.883,3.883,0,0,1,11.32,18.9a8.532,8.532,0,0,1-1.653-.941.514.514,0,0,0-.3-.094Zm44.4-6.069a.326.326,0,0,0-.326.326V13.8a.326.326,0,0,0,.326.325h1.07v3.555A3.955,3.955,0,0,0,58.8,21.566h.651a.512.512,0,0,0,.512-.512v-1.3a.512.512,0,0,0-.512-.512h-.685a1.628,1.628,0,0,1-1.594-1.628V14.124h1.768a.326.326,0,0,0,.326-.325V12.124a.326.326,0,0,0-.326-.326H57.171V9.53a.512.512,0,0,0-.512-.512h-1.3a.512.512,0,0,0-.512.512V11.8Zm24.8,7.451a4.269,4.269,0,1,1,1.666-.336A4.256,4.256,0,0,1,78.576,19.25Zm-38.948,0a2.559,2.559,0,1,1,1.81-.749A2.543,2.543,0,0,1,39.628,19.25Zm27.454-5.3H64.616V10.693h2.5a1.628,1.628,0,0,1-.034,3.255Z" transform="translate(1358.5 401)" fill="#35cfaa"/>
      <path id="パス_13" data-name="パス 13" d="M1116.737,628h-3a1.875,1.875,0,0,1-1.875-1.875v-26.25a1.875,1.875,0,0,1,1.875-1.875h3a1.875,1.875,0,0,1,1.875,1.875v26.25A1.875,1.875,0,0,1,1116.737,628Z" transform="translate(199.701 -197)" fill="#222"/>
      <path id="パス_14" data-name="パス 14" d="M1186.861,598h-10.125a1.875,1.875,0,0,0-1.875,1.875v26.25a1.875,1.875,0,0,0,1.875,1.875h10.125a15,15,0,0,0,15-15h0A15,15,0,0,0,1186.861,598Zm8.25,14.992a8.25,8.25,0,0,1-8.25,8.25h-4.5a.75.75,0,0,1-.75-.75v-15a.75.75,0,0,1,.75-.75h4.5A8.25,8.25,0,0,1,1195.111,612.992Z" transform="translate(148.515 -197)" fill="#222"/>
      <path id="パス_15" data-name="パス 15" d="M1002.1,639l4.314-4.314a1.5,1.5,0,0,0,0-2.121l-2.125-2.125a1.5,1.5,0,0,0-2.121,0l-4.314,4.314-4.314-4.314a1.5,1.5,0,0,0-2.121,0l-2.126,2.125a1.5,1.5,0,0,0,0,2.121L993.612,639l-4.315,4.314a1.5,1.5,0,0,0,0,2.121l2.126,2.125a1.5,1.5,0,0,0,2.121,0l4.314-4.314,4.314,4.314a1.5,1.5,0,0,0,2.121,0l2.125-2.125a1.5,1.5,0,0,0,0-2.121Z" transform="translate(299.643 -223)" fill="#35cfaa"/>
    </g>
  </g>
  <g id="profile" transform="translate(24 -4)">
    <text id="村上_春樹" data-name="村上 春樹" transform="translate(1395 39)" fill="#222" font-size="12" font-family="YuGothicUI-Regular, Yu Gothic UI"><tspan x="0" y="0">村上</tspan><tspan y="0" font-family="SegoeUI, Segoe UI"> </tspan><tspan y="0">春樹</tspan></text>
    <g id="icon-2" data-name="icon" transform="translate(1360 19)">
      <g id="Ellipse_1" data-name="Ellipse 1" fill="#527ac2" stroke="rgba(0,0,0,0.05)" stroke-width="1">
        <circle cx="15" cy="15" r="15" stroke="none"/>
        <circle cx="15" cy="15" r="14.5" fill="none"/>
      </g>
      <text id="村春" transform="translate(5 7)" fill="#fff" font-size="10" font-family="YuGothicUI-Regular, Yu Gothic UI"><tspan x="0" y="11">村春</tspan></text>
    </g>
  </g>
</svg>
